<svg width="1280" height="1831" viewBox="0 0 1280 1831" fill="none" xmlns="http://www.w3.org/2000/svg">
<g filter="url(#filter0_f_16_48)">
<path d="M961.995 363.913C991.138 371.823 1027.49 395.62 1033.01 427.853C1049.53 444.133 1070.73 454.26 1090.05 467.506C1156.58 513.127 1222.13 564.466 1274.2 626.551C1288.69 643.822 1304.81 659.968 1317.7 678.628C1326.61 691.532 1339.17 709.729 1342.64 725.227C1346.08 740.63 1347.57 754.831 1347.88 770.699C1348.22 788.564 1338.6 807.732 1329.45 822.597C1306.59 859.756 1262.79 878.927 1226.69 900.374C1186.15 924.466 1143.44 941.596 1098.96 956.947C1046.13 975.181 992.443 995.673 942.33 1020.46C916.276 1033.35 893.862 1047.9 873.563 1068.65C853.084 1089.58 839.592 1112.35 824.882 1137.18L824.141 1138.43C809.095 1163.82 794.247 1187.35 773.311 1208.34C752.378 1229.32 732.056 1252.57 706.862 1268.55C681.704 1284.5 657.983 1300.28 629.131 1309.07C601.204 1317.57 572.758 1325.49 543.7 1328.87C479.221 1336.38 411.038 1313.62 354.95 1283.18C303.156 1255.07 258.758 1216.11 220.617 1171.02C191.429 1136.51 163.575 1100.76 141.551 1061.23C128.176 1037.22 112.032 1015.5 101.23 989.829L101.23 989.828C90.4299 964.163 79.1895 937.45 80.3435 909.324C81.1073 890.708 92.6127 863.872 105.089 849.936C120.441 832.787 135.09 815.405 157.487 806.76C186.932 795.393 217.859 794.879 248.944 797.949C281.583 801.172 310.853 812.86 338.789 830.077C352.044 838.245 363.303 851.669 374.009 862.911C378.509 867.636 379.651 873.337 379.658 879.535C379.672 890.885 392.604 905.949 397.357 916.101C403.312 928.821 415.518 938.817 425.285 948.56C439.959 963.198 455.194 972.964 473.428 982.786C497.582 995.797 523.47 999.745 550.337 1003.03C574.236 1005.96 601.198 1008.75 625.114 1005.31C643.41 1002.67 664.544 995.802 679.714 985.028C696.923 972.807 712.514 954.447 726.799 938.98C758.024 905.175 783.711 866.955 791.834 821.015C801.574 765.932 801.487 710.626 800.778 654.89C800.363 622.214 797.511 589.541 795.797 556.903C794.364 529.606 791.589 500.939 795.439 473.751C798.094 455.003 805.092 434.797 812.897 417.569C820.419 400.965 835.188 390.778 849.183 380.17C882.779 354.703 922.946 353.314 961.995 363.913Z" fill="url(#paint0_linear_16_48)"/>
</g>
<defs>
<filter id="filter0_f_16_48" x="-419.738" y="-142.316" width="2267.62" height="1972.63" filterUnits="userSpaceOnUse" color-interpolation-filters="sRGB">
<feFlood flood-opacity="0" result="BackgroundImageFix"/>
<feBlend mode="normal" in="SourceGraphic" in2="BackgroundImageFix" result="shape"/>
<feGaussianBlur stdDeviation="250" result="effect1_foregroundBlur_16_48"/>
</filter>
<linearGradient id="paint0_linear_16_48" x1="1102.3" y1="451.699" x2="301.436" y2="1254.53" gradientUnits="userSpaceOnUse">
<stop stop-color="#E43FA2"/>
<stop offset="0.510417" stop-color="#983FC2" stop-opacity="0.35"/>
<stop offset="1" stop-color="#7E3FE4"/>
</linearGradient>
</defs>
</svg>
